<?xml version="1.0" encoding="UTF-8"?>
<svg xmlns="http://www.w3.org/2000/svg" xmlns:xlink="http://www.w3.org/1999/xlink" width="441px" height="453px" viewBox="0 0 441 451" version="1.1">
<g id="surface1">
<path style=" stroke:none;fill-rule:nonzero;fill:rgb(100%,80%,16.078431%);fill-opacity:1;" d="M 210.464844 0.113281 L 210.832031 0.113281 C 211.3125 0.921875 212.050781 1.546875 212.675781 2.210938 C 286.582031 77.035156 360.488281 151.855469 434.394531 226.640625 C 436.609375 228.742188 438.566406 231.171875 440.964844 233.089844 L 440.964844 233.199219 C 439.96875 233.679688 439.300781 234.597656 438.492188 235.335938 C 406.945312 266.207031 375.394531 297.117188 343.847656 327.988281 C 314.144531 317.933594 283.261719 311.484375 252.046875 308.683594 C 222.933594 306.070312 193.601562 306.585938 164.5625 309.789062 C 135.636719 312.957031 107.039062 318.78125 78.996094 326.515625 C 58.410156 305.074219 37.78125 283.671875 17.15625 262.304688 C 11.4375 256.410156 5.828125 250.441406 0.0351562 244.621094 L 0.0351562 244.4375 L 0.222656 244.363281 C 15.054688 227.304688 29.738281 210.136719 44.535156 193.007812 C 92.90625 136.863281 141.316406 80.679688 189.691406 24.535156 C 196.589844 16.46875 203.636719 8.472656 210.464844 0.371094 Z M 131.796875 101.089844 C 131.796875 168.359375 131.796875 235.667969 131.796875 302.9375 C 150.800781 302.9375 169.839844 302.976562 188.84375 302.9375 C 188.84375 291.664062 188.769531 280.429688 188.878906 269.15625 C 192.605469 269.191406 196.332031 269.191406 200.058594 269.15625 C 200.167969 280.390625 200.132812 291.664062 200.09375 302.9375 C 204.226562 303.046875 208.359375 302.976562 212.492188 302.976562 C 212.53125 291.703125 212.382812 280.429688 212.566406 269.15625 C 215.59375 269.265625 218.582031 269.082031 221.605469 269.230469 C 221.496094 280.464844 221.644531 291.664062 221.53125 302.902344 C 225.664062 303.011719 229.796875 302.9375 233.929688 302.9375 C 233.929688 291.664062 233.894531 280.429688 233.96875 269.15625 C 237.4375 269.230469 240.941406 269.082031 244.410156 269.230469 C 244.300781 280.464844 244.410156 291.703125 244.371094 302.9375 C 263.816406 303.011719 283.261719 302.9375 302.671875 302.976562 C 302.671875 235.667969 302.671875 168.398438 302.671875 101.089844 C 245.738281 101.089844 188.769531 101.054688 131.796875 101.089844 Z M 131.796875 101.089844 "/>
<path style=" stroke:none;fill-rule:nonzero;fill:rgb(100%,80%,16.078431%);fill-opacity:1;" d="M 213.710938 322.058594 C 251.605469 319.257812 290.199219 321.910156 326.800781 332.667969 C 351.929688 340.035156 376.023438 351.421875 396.832031 367.335938 C 401.222656 370.722656 405.542969 374.261719 409.601562 378.09375 C 384.25 402.40625 358.792969 426.574219 333.40625 450.886719 C 327.132812 442.046875 319.128906 434.496094 310.160156 428.378906 C 299.792969 421.304688 288.171875 416.296875 276.140625 412.90625 C 261.972656 408.925781 247.25 407.121094 232.527344 406.789062 C 214.707031 406.421875 196.921875 408.152344 179.394531 411.25 C 141.464844 418.027344 104.863281 431.070312 70.214844 447.683594 C 94.015625 432.246094 119.214844 418.800781 145.820312 408.742188 C 177.183594 396.84375 210.683594 389.882812 244.371094 390.542969 C 273.078125 391.023438 301.636719 397.210938 328.128906 408.191406 C 302.226562 393.269531 272.710938 385.054688 242.933594 383.027344 C 209.875 380.707031 176.703125 385.460938 144.75 393.785156 C 126.925781 398.429688 109.402344 404.210938 92.207031 410.734375 C 79.625 415.558594 67.117188 420.644531 54.867188 426.28125 L 54.792969 426.207031 C 68.371094 416.738281 82.945312 408.78125 97.964844 401.816406 C 128.21875 387.890625 160.429688 378.238281 193.304688 372.898438 C 211.902344 369.914062 230.71875 368.367188 249.574219 368.660156 C 266.546875 368.917969 283.519531 370.6875 300.089844 374.445312 C 315.878906 378.054688 331.265625 383.542969 345.472656 391.355469 C 321.488281 375.144531 293.703125 364.792969 265.109375 360.296875 C 246.699219 357.351562 227.953125 356.6875 209.320312 357.757812 C 187.773438 359.007812 166.40625 362.507812 145.449219 367.554688 C 105.5625 377.207031 67.226562 392.3125 30.328125 410.144531 C 37.265625 405.28125 44.609375 400.96875 51.914062 396.695312 C 88.847656 375.625 129.105469 360.371094 170.726562 351.75 C 208.804688 343.90625 248.246094 341.582031 286.769531 347.441406 C 311.082031 351.160156 334.957031 358.347656 356.875 369.617188 C 333.8125 356.761719 308.90625 347.257812 283.113281 341.511719 C 263.742188 337.164062 243.894531 334.953125 224.042969 334.695312 C 199.652344 334.363281 175.261719 336.941406 151.355469 341.65625 C 106.78125 350.5 63.90625 366.449219 22.914062 385.867188 C 19.851562 387.300781 16.824219 388.8125 13.726562 390.25 C 32.210938 378.054688 51.804688 367.519531 72.023438 358.457031 C 116.742188 338.414062 164.820312 325.742188 213.710938 322.058594 Z M 213.710938 322.058594 "/>
<path style=" stroke:none;fill-rule:nonzero;fill:rgb(0%,65.882353%,34.901961%);fill-opacity:1;" d="M 131.796875 101.089844 C 188.769531 101.054688 245.699219 101.089844 302.671875 101.089844 C 302.671875 168.398438 302.671875 235.667969 302.671875 302.976562 C 283.226562 302.976562 263.78125 303.011719 244.371094 302.9375 C 244.445312 291.703125 244.335938 280.464844 244.410156 269.230469 C 240.941406 269.082031 237.4375 269.230469 233.96875 269.15625 C 233.894531 280.429688 233.96875 291.664062 233.929688 302.9375 C 229.796875 302.9375 225.664062 303.011719 221.53125 302.902344 C 221.644531 291.664062 221.496094 280.464844 221.605469 269.230469 C 218.582031 269.082031 215.59375 269.230469 212.566406 269.15625 C 212.382812 280.429688 212.53125 291.703125 212.492188 302.976562 C 208.359375 302.976562 204.226562 303.046875 200.09375 302.9375 C 200.132812 291.703125 200.167969 280.429688 200.058594 269.15625 C 196.332031 269.191406 192.605469 269.191406 188.878906 269.15625 C 188.769531 280.429688 188.84375 291.664062 188.84375 302.9375 C 169.800781 302.976562 150.800781 302.9375 131.796875 302.9375 C 131.835938 235.667969 131.835938 168.359375 131.796875 101.089844 Z M 143.496094 114.90625 C 143.496094 173.003906 143.496094 231.0625 143.496094 289.125 C 154.859375 289.125 166.222656 289.125 177.625 289.125 C 177.660156 282.492188 177.589844 275.859375 177.660156 269.191406 C 173.972656 269.082031 170.320312 269.15625 166.667969 269.15625 C 166.59375 264.292969 166.59375 259.429688 166.667969 254.53125 C 200.132812 254.605469 233.636719 254.53125 267.101562 254.566406 C 267.101562 259.394531 267.101562 264.257812 267.101562 269.082031 C 263.671875 269.117188 260.203125 269.117188 256.769531 269.082031 C 256.695312 275.75 256.769531 282.417969 256.734375 289.085938 C 268.136719 289.085938 279.574219 289.085938 290.972656 289.085938 C 291.011719 230.988281 291.011719 172.929688 290.972656 114.832031 C 241.828125 114.90625 192.679688 114.867188 143.496094 114.90625 Z M 143.496094 114.90625 "/>
<path style=" stroke:none;fill-rule:nonzero;fill:rgb(0%,65.882353%,34.901961%);fill-opacity:1;" d="M 202.273438 116.601562 C 206.183594 116.636719 210.09375 116.601562 214.007812 116.601562 C 214.007812 123.5625 214.007812 130.527344 214.007812 137.453125 C 210.09375 137.453125 206.183594 137.453125 202.273438 137.453125 C 202.273438 136.75 202.273438 136.015625 202.273438 135.316406 C 190.613281 138.742188 180.355469 146.441406 173.566406 156.460938 C 166.480469 166.8125 163.125 179.597656 164.046875 192.085938 C 164.859375 204.097656 169.617188 215.773438 177.589844 224.835938 C 184.117188 232.316406 192.753906 237.988281 202.308594 240.824219 C 202.308594 233.753906 202.308594 226.679688 202.308594 219.605469 C 197.253906 219.605469 192.199219 219.605469 187.144531 219.605469 C 187.109375 215.699219 187.144531 211.796875 187.144531 207.890625 C 196.109375 207.890625 205.113281 207.855469 214.078125 207.890625 C 214.078125 223.105469 214.078125 238.320312 214.078125 253.535156 C 201.535156 254.273438 189.175781 249.484375 179.285156 241.96875 C 175.632812 239.203125 172.273438 236.035156 169.25 232.609375 C 167.589844 234.269531 165.890625 235.816406 164.269531 237.511719 C 160.578125 234.5625 157.515625 230.84375 154.96875 226.863281 C 151.058594 220.601562 148.476562 213.453125 147.699219 206.121094 C 149.839844 204.683594 151.980469 203.210938 154.085938 201.703125 C 151.761719 190.574219 152.425781 178.898438 155.632812 168.027344 C 153.125 167.402344 150.617188 166.703125 148.105469 166.113281 C 151.316406 154.066406 157.921875 142.757812 167.773438 134.984375 C 169.398438 136.53125 170.910156 138.1875 172.53125 139.699219 L 172.753906 139.734375 C 177.367188 135.351562 182.496094 131.484375 188.175781 128.574219 C 192.640625 126.214844 197.402344 124.519531 202.273438 123.230469 C 202.347656 121.019531 202.199219 118.8125 202.273438 116.601562 Z M 202.273438 116.601562 "/>
<path style=" stroke:none;fill-rule:nonzero;fill:rgb(0%,65.882353%,34.901961%);fill-opacity:1;" d="M 219.429688 116.5625 C 223.339844 116.601562 227.214844 116.5625 231.125 116.5625 C 231.164062 118.8125 231.089844 121.058594 231.164062 123.269531 C 242.046875 125.847656 252.15625 131.519531 260.203125 139.292969 C 260.386719 139.40625 260.71875 139.625 260.902344 139.699219 C 262.5625 138.1875 264.074219 136.53125 265.699219 134.984375 C 275.589844 142.71875 282.117188 154.066406 285.441406 166.039062 C 282.929688 166.8125 280.386719 167.367188 277.839844 168.066406 C 281.160156 178.972656 281.601562 190.648438 279.460938 201.847656 C 281.640625 203.285156 283.78125 204.722656 285.882812 206.269531 C 284.371094 218.207031 278.613281 229.699219 269.390625 237.546875 C 267.617188 235.960938 265.996094 234.269531 264.261719 232.648438 C 257.027344 240.898438 247.765625 247.53125 237.324219 251.066406 C 231.605469 253.019531 225.519531 253.902344 219.429688 253.570312 C 219.429688 238.355469 219.429688 223.140625 219.429688 207.925781 C 228.394531 207.964844 237.398438 207.890625 246.363281 207.964844 C 246.328125 211.832031 246.328125 215.738281 246.363281 219.605469 C 241.273438 219.714844 236.21875 219.570312 231.125 219.679688 C 231.164062 226.714844 231.125 233.753906 231.125 240.789062 C 243.042969 237.398438 253.449219 229.367188 260.277344 219.054688 C 267.324219 208.480469 270.496094 195.476562 269.277344 182.839844 C 268.207031 170.792969 263.117188 159.113281 254.886719 150.199219 C 248.503906 143.234375 240.238281 137.96875 231.164062 135.316406 C 231.164062 136.015625 231.164062 136.75 231.125 137.488281 C 227.253906 137.453125 223.339844 137.453125 219.429688 137.488281 C 219.394531 130.488281 219.394531 123.527344 219.429688 116.5625 Z M 219.429688 116.5625 "/>
<path style=" stroke:none;fill-rule:nonzero;fill:rgb(0%,65.882353%,34.901961%);fill-opacity:1;" d="M 216.515625 159.703125 C 217.878906 163.609375 219.097656 167.550781 220.390625 171.457031 C 224.523438 171.492188 228.65625 171.457031 232.785156 171.492188 C 229.503906 173.960938 226.109375 176.316406 222.789062 178.785156 C 224.003906 182.691406 225.40625 186.558594 226.515625 190.5 C 223.195312 188.105469 219.871094 185.710938 216.589844 183.28125 C 213.195312 185.640625 209.910156 188.21875 206.480469 190.5 C 207.84375 186.632812 209.023438 182.691406 210.351562 178.785156 C 207.070312 176.28125 203.636719 173.960938 200.355469 171.492188 C 204.414062 171.417969 208.507812 171.527344 212.605469 171.417969 C 212.675781 171.308594 212.789062 171.125 212.863281 171.011719 C 214.078125 167.253906 215.335938 163.496094 216.515625 159.703125 Z M 216.515625 159.703125 "/>
<path style=" stroke:none;fill-rule:nonzero;fill:rgb(99.607843%,99.607843%,99.607843%);fill-opacity:1;" d="M 143.496094 114.90625 C 192.640625 114.90625 241.789062 114.90625 290.972656 114.90625 C 291.011719 173.003906 291.011719 231.0625 290.972656 289.160156 C 279.574219 289.125 268.136719 289.160156 256.734375 289.160156 C 256.769531 282.492188 256.695312 275.824219 256.769531 269.15625 C 260.203125 269.191406 263.671875 269.191406 267.101562 269.15625 C 267.066406 264.292969 267.101562 259.464844 267.101562 254.640625 C 233.636719 254.605469 200.132812 254.675781 166.667969 254.605469 C 166.59375 259.464844 166.59375 264.328125 166.667969 269.230469 C 170.320312 269.230469 174.007812 269.15625 177.660156 269.265625 C 177.589844 275.898438 177.660156 282.527344 177.625 289.195312 C 166.261719 289.195312 154.859375 289.195312 143.496094 289.195312 C 143.496094 231.0625 143.496094 172.964844 143.496094 114.90625 Z M 202.273438 116.601562 C 202.199219 118.8125 202.347656 121.019531 202.199219 123.230469 C 197.328125 124.558594 192.570312 126.214844 188.105469 128.574219 C 182.421875 131.484375 177.292969 135.351562 172.679688 139.734375 L 172.460938 139.699219 C 170.800781 138.1875 169.285156 136.53125 167.699219 134.984375 C 157.847656 142.757812 151.207031 154.066406 148.03125 166.113281 C 150.542969 166.738281 153.050781 167.441406 155.558594 168.027344 C 152.386719 178.898438 151.722656 190.574219 154.011719 201.703125 C 151.90625 203.210938 149.765625 204.683594 147.628906 206.121094 C 148.402344 213.453125 150.984375 220.601562 154.894531 226.863281 C 157.441406 230.84375 160.46875 234.5625 164.195312 237.511719 C 165.816406 235.851562 167.550781 234.269531 169.175781 232.609375 C 172.199219 236.035156 175.558594 239.203125 179.210938 241.96875 C 189.101562 249.484375 201.460938 254.273438 214.007812 253.535156 C 214.007812 238.320312 214.007812 223.105469 214.007812 207.890625 C 205.039062 207.855469 196.035156 207.890625 187.070312 207.890625 C 187.070312 211.796875 187.035156 215.699219 187.070312 219.605469 C 192.125 219.605469 197.179688 219.605469 202.234375 219.605469 C 202.234375 226.679688 202.234375 233.753906 202.234375 240.824219 C 192.679688 237.988281 184.046875 232.351562 177.515625 224.835938 C 169.582031 215.773438 164.785156 204.058594 163.972656 192.085938 C 163.050781 179.597656 166.40625 166.8125 173.492188 156.460938 C 180.28125 146.441406 190.539062 138.742188 202.199219 135.316406 C 202.199219 136.015625 202.199219 136.75 202.199219 137.453125 C 206.109375 137.453125 210.019531 137.453125 213.933594 137.453125 C 213.96875 130.488281 213.933594 123.527344 213.933594 116.601562 C 210.09375 116.601562 206.183594 116.601562 202.273438 116.601562 Z M 219.429688 116.5625 C 219.394531 123.527344 219.394531 130.488281 219.429688 137.453125 C 223.304688 137.414062 227.214844 137.414062 231.125 137.453125 C 231.125 136.714844 231.164062 136.015625 231.164062 135.277344 C 240.238281 137.929688 248.503906 143.199219 254.886719 150.160156 C 263.117188 159.078125 268.246094 170.753906 269.277344 182.800781 C 270.460938 195.4375 267.285156 208.441406 260.277344 219.015625 C 253.488281 229.292969 243.082031 237.363281 231.125 240.75 C 231.125 233.714844 231.164062 226.679688 231.125 219.640625 C 236.21875 219.53125 241.273438 219.679688 246.363281 219.570312 C 246.328125 215.699219 246.328125 211.796875 246.363281 207.925781 C 237.398438 207.855469 228.394531 207.925781 219.429688 207.890625 C 219.429688 223.105469 219.429688 238.320312 219.429688 253.535156 C 225.480469 253.867188 231.570312 252.945312 237.324219 251.03125 C 247.765625 247.492188 257.027344 240.863281 264.261719 232.609375 C 265.957031 234.230469 267.617188 235.925781 269.390625 237.511719 C 278.613281 229.664062 284.40625 218.207031 285.882812 206.234375 C 283.78125 204.683594 281.640625 203.25 279.460938 201.8125 C 281.601562 190.648438 281.160156 178.933594 277.839844 168.027344 C 280.347656 167.328125 282.929688 166.777344 285.441406 166.003906 C 282.117188 154.03125 275.589844 142.683594 265.699219 134.945312 C 264.074219 136.492188 262.5625 138.152344 260.902344 139.664062 C 260.71875 139.550781 260.386719 139.332031 260.203125 139.257812 C 252.15625 131.519531 242.046875 125.808594 231.164062 123.230469 C 231.050781 120.984375 231.164062 118.773438 231.125 116.527344 C 227.214844 116.601562 223.304688 116.601562 219.429688 116.5625 Z M 216.515625 159.703125 C 215.371094 163.496094 214.078125 167.253906 212.863281 171.050781 C 212.789062 171.160156 212.675781 171.34375 212.605469 171.457031 C 208.546875 171.566406 204.449219 171.417969 200.355469 171.527344 C 203.636719 174.035156 207.070312 176.355469 210.351562 178.824219 C 209.023438 182.726562 207.84375 186.671875 206.480469 190.539062 C 209.910156 188.21875 213.195312 185.675781 216.589844 183.316406 C 219.871094 185.75 223.195312 188.105469 226.515625 190.539062 C 225.40625 186.597656 224.003906 182.726562 222.789062 178.824219 C 226.109375 176.390625 229.464844 173.996094 232.785156 171.527344 C 228.65625 171.492188 224.523438 171.566406 220.390625 171.492188 C 219.097656 167.511719 217.878906 163.570312 216.515625 159.703125 Z M 216.515625 159.703125 "/>
</g>
</svg>
